<svg width="27" height="22" viewBox="0 0 27 22" fill="none" xmlns="http://www.w3.org/2000/svg">
<g filter="url(#filter0_d_1_11101)">
<path d="M9.57272 13.27C8.60072 13.27 7.71872 13.012 6.92672 12.496C6.13472 11.98 5.50472 11.23 5.03672 10.246C4.58072 9.25 4.35272 8.068 4.35272 6.7C4.35272 5.332 4.58072 4.156 5.03672 3.172C5.50472 2.176 6.13472 1.42 6.92672 0.903999C7.71872 0.387999 8.60072 0.129999 9.57272 0.129999C10.5447 0.129999 11.4267 0.387999 12.2187 0.903999C13.0107 1.42 13.6347 2.176 14.0907 3.172C14.5587 4.156 14.7927 5.332 14.7927 6.7C14.7927 8.068 14.5587 9.25 14.0907 10.246C13.6347 11.23 13.0107 11.98 12.2187 12.496C11.4267 13.012 10.5447 13.27 9.57272 13.27ZM9.57272 12.91C10.9527 12.91 11.6427 10.84 11.6427 6.7C11.6427 2.56 10.9527 0.489999 9.57272 0.489999C8.19272 0.489999 7.50272 2.56 7.50272 6.7C7.50272 10.84 8.19272 12.91 9.57272 12.91ZM16.8613 13V12.73L18.1213 12.37V2.488L16.2313 3.82L15.8713 3.37L19.1473 0.399999H21.0913V12.37L22.3513 12.73V13H16.8613Z" fill="white"/>
</g>
<defs>
<filter id="filter0_d_1_11101" x="0.352722" y="0.130005" width="25.9986" height="21.14" filterUnits="userSpaceOnUse" color-interpolation-filters="sRGB">
<feFlood flood-opacity="0" result="BackgroundImageFix"/>
<feColorMatrix in="SourceAlpha" type="matrix" values="0 0 0 0 0 0 0 0 0 0 0 0 0 0 0 0 0 0 127 0" result="hardAlpha"/>
<feOffset dy="4"/>
<feGaussianBlur stdDeviation="2"/>
<feComposite in2="hardAlpha" operator="out"/>
<feColorMatrix type="matrix" values="0 0 0 0 0 0 0 0 0 0 0 0 0 0 0 0 0 0 0.25 0"/>
<feBlend mode="normal" in2="BackgroundImageFix" result="effect1_dropShadow_1_11101"/>
<feBlend mode="normal" in="SourceGraphic" in2="effect1_dropShadow_1_11101" result="shape"/>
</filter>
</defs>
</svg>
