<svg width="66" height="66" viewBox="0 0 66 66" fill="none" xmlns="http://www.w3.org/2000/svg">
<g filter="url(#filter0_d_118600_7)">
<rect x="12" y="8.21631" width="41.7571" height="41.7571" rx="20.8785" fill="#E3B873"/>
<rect x="8" y="4.21631" width="49.7571" height="49.7571" rx="24.8785" stroke="white" stroke-width="8"/>
</g>
<g filter="url(#filter1_d_118600_7)">
<path d="M29.5727 35.27C28.6007 35.27 27.7187 35.012 26.9267 34.496C26.1347 33.98 25.5047 33.23 25.0367 32.246C24.5807 31.25 24.3527 30.068 24.3527 28.7C24.3527 27.332 24.5807 26.156 25.0367 25.172C25.5047 24.176 26.1347 23.42 26.9267 22.904C27.7187 22.388 28.6007 22.13 29.5727 22.13C30.5447 22.13 31.4267 22.388 32.2187 22.904C33.0107 23.42 33.6347 24.176 34.0907 25.172C34.5587 26.156 34.7927 27.332 34.7927 28.7C34.7927 30.068 34.5587 31.25 34.0907 32.246C33.6347 33.23 33.0107 33.98 32.2187 34.496C31.4267 35.012 30.5447 35.27 29.5727 35.27ZM29.5727 34.91C30.9527 34.91 31.6427 32.84 31.6427 28.7C31.6427 24.56 30.9527 22.49 29.5727 22.49C28.1927 22.49 27.5027 24.56 27.5027 28.7C27.5027 32.84 28.1927 34.91 29.5727 34.91ZM36.8613 35V34.73L38.1213 34.37V24.488L36.2313 25.82L35.8713 25.37L39.1473 22.4H41.0913V34.37L42.3513 34.73V35H36.8613Z" fill="white"/>
</g>
<defs>
<filter id="filter0_d_118600_7" x="0" y="0.216309" width="65.757" height="65.7571" filterUnits="userSpaceOnUse" color-interpolation-filters="sRGB">
<feFlood flood-opacity="0" result="BackgroundImageFix"/>
<feColorMatrix in="SourceAlpha" type="matrix" values="0 0 0 0 0 0 0 0 0 0 0 0 0 0 0 0 0 0 127 0" result="hardAlpha"/>
<feOffset dy="4"/>
<feGaussianBlur stdDeviation="2"/>
<feComposite in2="hardAlpha" operator="out"/>
<feColorMatrix type="matrix" values="0 0 0 0 0 0 0 0 0 0 0 0 0 0 0 0 0 0 0.25 0"/>
<feBlend mode="normal" in2="BackgroundImageFix" result="effect1_dropShadow_118600_7"/>
<feBlend mode="normal" in="SourceGraphic" in2="effect1_dropShadow_118600_7" result="shape"/>
</filter>
<filter id="filter1_d_118600_7" x="20.3527" y="22.13" width="25.9986" height="21.14" filterUnits="userSpaceOnUse" color-interpolation-filters="sRGB">
<feFlood flood-opacity="0" result="BackgroundImageFix"/>
<feColorMatrix in="SourceAlpha" type="matrix" values="0 0 0 0 0 0 0 0 0 0 0 0 0 0 0 0 0 0 127 0" result="hardAlpha"/>
<feOffset dy="4"/>
<feGaussianBlur stdDeviation="2"/>
<feComposite in2="hardAlpha" operator="out"/>
<feColorMatrix type="matrix" values="0 0 0 0 0 0 0 0 0 0 0 0 0 0 0 0 0 0 0.25 0"/>
<feBlend mode="normal" in2="BackgroundImageFix" result="effect1_dropShadow_118600_7"/>
<feBlend mode="normal" in="SourceGraphic" in2="effect1_dropShadow_118600_7" result="shape"/>
</filter>
</defs>
</svg>
